<?xml version="1.0" encoding="UTF-8" standalone="no"?>
<!DOCTYPE svg PUBLIC "-//W3C//DTD SVG 1.1//EN" "http://www.w3.org/Graphics/SVG/1.1/DTD/svg11.dtd">
<svg width="100%" height="100%" viewBox="0 0 1000 1000" version="1.1" xmlns="http://www.w3.org/2000/svg" xmlns:xlink="http://www.w3.org/1999/xlink" xml:space="preserve" xmlns:serif="http://www.serif.com/" style="fill-rule:evenodd;clip-rule:evenodd;stroke-linecap:round;stroke-linejoin:round;">
    <g id="Logo">
        <g transform="matrix(40.692642,0,0,51.790636,17.506433,-121.487628)">
            <path d="M17.822,6.75L23.072,12L17.822,17.25M5.892,17.523L0.642,12.273L5.892,7.023" style="fill:none;fill-rule:nonzero;stroke:rgb(51,151,78);stroke-width:1.5px;"/>
        </g>
        <g id="GCat" transform="matrix(0.782193,0,0,0.730943,128.251144,111.3265)">
            <path d="M480.043,912.954C538.244,919.135 661.253,889.869 690.293,857.967C727.227,837.904 734.713,826.913 757.543,793.578C791.209,744.42 814.098,644.735 792.245,589.171C741.456,555.289 642.999,592.534 651.52,621.499C673.783,697.17 699.095,674.226 692.094,705.565C683.037,746.111 644.821,809.049 576.683,808.482C574.444,791.852 570.247,775.222 561.498,758.591C547.502,733.478 530.304,710.766 510.523,689.991C498.313,674.027 488.201,657.872 483.95,641.185C480.625,629.292 480.131,617.196 486.933,604.58C490.818,597.181 496.683,591.002 509.98,589.396C523.34,589.138 536.389,590.738 549.026,594.818C565.415,599.754 579.906,595.577 592.68,583.159C619.976,564.042 640.221,539.551 652.333,508.865C632.37,492.783 617.614,474.423 609.22,453.28C600.471,424.695 591.306,406.937 581.834,397.152C569.011,383.122 553.174,375.118 536.011,369.767C526.161,365.879 515.221,362.718 503.202,360.276C508.679,337.966 511.829,315.073 508.625,290.592C506.411,280.832 503.66,271.88 500,264.29C480.129,272.045 462.97,283.112 448.159,295.201C429.191,312.865 414.344,331.766 402.606,351.6L393.116,364.615C365.68,383.57 342.643,406.125 323.16,431.588C311.226,447.785 300.478,465.463 291.436,485.275C282.867,507.424 278.313,530.912 276.252,555.231C275.014,569.34 274.779,583.783 275.71,598.615C278.367,624.807 284.168,649.428 295.503,671.282C307.954,696.312 322.911,718.558 341.869,736.357C357.108,751.291 373.173,764.903 392.032,774.047C409.738,782.21 424.849,788.75 436.771,793.298C451.632,798.656 466.739,803.034 482.324,805.5C479.521,808.09 470.756,808.693 457.107,807.669C432.418,805.543 409.309,800.576 388.236,791.942C354.326,779.495 325.978,762.181 303.638,739.611C275.805,714.391 254.464,685.204 239.647,652.03C223.01,613.669 213.623,580.035 213.617,552.52C210.645,523.597 211.256,494.675 217.684,465.753C223.394,436.231 232.127,407.873 247.239,381.968C259.128,356.788 274.576,334.843 294.419,316.893C314.503,295.916 337.51,277.132 366.273,262.664C388.062,250.192 410.191,242.146 432.704,239.074C466.591,231.667 500.135,229.76 533.299,233.922C565.5,240.314 594.012,248.408 616.812,259.139C631.208,265.676 646.972,274.559 666.432,289.778C680.691,301.387 694.593,314.424 708.128,328.925C741.274,328.697 758.78,310.688 757.206,271.984C734.075,246.685 708.077,224.729 679.522,205.757C644.105,185.645 606.709,168.924 564.963,159.662C530.425,153.404 495.675,148.853 460.232,149.832C424.941,151.56 390.793,157.482 358.213,169.152C336.729,177.84 310.894,190.516 278.564,209.146C253.002,226.514 228.431,248.832 204.676,275.238C182.187,302.473 162.543,332.962 146.38,367.428C134.197,399.934 122.718,432.675 119.265,468.091C114.783,500.181 111.965,532.626 117.631,566.89C119.296,599.422 124.274,630.979 138.238,659.894C150.106,687.775 164.867,716.428 187.587,747.203C216.641,779.393 246.614,810.894 284.386,836.546C323.66,859.392 382.025,903.851 480.043,912.954Z" style="fill:rgb(51,151,78);stroke:rgb(51,151,78);stroke-width:5.5px;stroke-miterlimit:1.5;"/>
        </g>
    </g>
</svg>
