<?xml version="1.0" encoding="UTF-8" standalone="no"?>
<!DOCTYPE svg PUBLIC "-//W3C//DTD SVG 1.1//EN" "http://www.w3.org/Graphics/SVG/1.1/DTD/svg11.dtd">
<svg width="100%" height="100%" viewBox="0 0 1000 1000" version="1.1" xmlns="http://www.w3.org/2000/svg" xmlns:xlink="http://www.w3.org/1999/xlink" xml:space="preserve" xmlns:serif="http://www.serif.com/" style="fill-rule:evenodd;clip-rule:evenodd;stroke-linecap:round;stroke-linejoin:round;stroke-miterlimit:1.5;">
    <g id="Logo" transform="matrix(1.683825,0,0,1.683825,-341.912733,-341.912281)">
        <g id="Gato" transform="matrix(1,0,0,1,0.000269,0)">
            <g transform="matrix(0.90227,0,0,0.980151,26.186833,49.090728)">
                <path d="M524.878,544.624C520.4,545.264 517.448,542.639 510.528,556.479C506.051,565.435 501.881,566.635 509.905,582.683C519.845,602.564 558.247,649.42 558.569,650.065C561.601,656.127 568.468,669.778 573.543,685.004C579.014,701.417 576.042,701.843 574.791,702.473C462.318,759.122 301.631,557.705 350.808,490.968C360.352,478.017 447.235,344.342 498.674,318.77C500.394,317.915 522.774,305.601 523.007,307.539C524.317,318.459 526.011,329.64 526.126,331.248C527.668,352.827 530.58,353.163 523.891,373.608C543.236,374.7 565.695,385.166 569.8,389.271C577.842,397.314 579.409,396.012 586.645,410.484C587.06,411.315 611.302,455.43 612.849,458.525C619.914,472.655 625.309,465.745 630.943,474.123C639.899,487.441 605.119,523.308 600.995,515.301C600.286,513.924 613.681,527.987 600.371,534.642C599.413,535.121 565.308,549.865 558.569,546.496C553.663,544.043 553.379,545.116 525.502,544.001" style="fill:rgb(51,151,78);stroke:rgb(51,151,78);stroke-width:2.63px;"/>
            </g>
            <g transform="matrix(1.393841,-0.000583,0.000535,1.280152,-223.676528,-110.018289)">
                <path d="M621.236,495.36C611.824,495.356 604.196,487.044 604.2,476.795C604.204,466.547 611.838,458.242 621.251,458.246L713.337,458.288C720.244,458.291 726.467,462.833 729.093,469.789C731.72,476.744 730.231,484.738 725.323,490.03L530.925,699.651C524.271,706.826 513.547,706.812 506.91,699.619L313.306,489.821C310.086,486.332 308.279,481.588 308.285,476.642C308.292,471.695 310.112,466.957 313.341,463.478L507.105,254.718C510.324,251.251 514.677,249.32 519.204,249.353C523.732,249.385 528.061,251.377 531.238,254.89L614.396,346.854C621,354.157 620.916,365.906 614.209,373.097C607.501,380.287 596.711,380.195 590.107,372.892L518.936,294.185L349.524,476.707L518.962,660.317L671.918,495.383L621.236,495.36Z" style="fill:rgb(51,151,78);"/>
            </g>
        </g>
    </g>
</svg>
